<?xml version="1.0" encoding="UTF-8"?>
<svg id="Capa_1" data-name="Capa 1" xmlns="http://www.w3.org/2000/svg" class='svglite' width='155.00pt' height='155.00pt' viewBox='0 0 155.00 155.00'>
  <defs>
    <style type='text/css'><![CDATA[
    .svglite line, .svglite polyline, .svglite polygon, .svglite path, .svglite rect, .svglite circle {
      fill: none;
      stroke: #000000;
      stroke-linecap: round;
      stroke-linejoin: round;
      stroke-miterlimit: 10.00;
    }
    .svglite text {
      white-space: pre;
    }
  ]]></style>
  </defs>
  <rect width='100%' height='100%' style='stroke: none; fill: none;'/>
  <path class="cls-1" d="M41.72,34.65c.66-.84,1.33-1.67,2.18-2.75-1.06-1.49-2.19-3.08-3.74-5.26,3.27-2.22,6.17-5.03,9.64-6.28,2.83-1.03,6.33-.21,9.88-1.19-7.17-5.63-16.38-8.3-19.82-18.16-3.03,1.76-5.34,2.66-7.09,4.21-4.32,3.82-8.73,7.65-12.41,12.06-1.96,2.34-3.34,5.85-3.46,8.89-.26,6.59-2.03,12.48-6.75,16.91-5.77,5.42-6.5,11.04-2.79,16.66-2.29,7.61-4.36,14.47-6.21,20.6.48,5.76,5.14,5.47,7.67,7.11-.38,5.69-1.08,11.2-1.01,16.71.07,6.44-.49,12.19-4.92,17.64-4.4,5.41-.58,19.06,5.93,22.7,1.06-1.2,2.58-2.34,3.34-3.86,4.29-8.61,9.02-17.07,12.34-26.05,2.18-5.9,2.65-12.56,3.05-18.93.22-3.44,1.32-5.93,3.69-7.96,5.81-4.97,4.92-11.17,3.7-17.48l-1.73-1.55,4.34-4.66c.55.56,1.11,1.12,1.66,1.67v-20.39c-.68-.5-2.1-1.55-4.63-3.41,3.63-1.17,6.49-2.09,10.05-3.24-1.34-1.09-1.88-1.53-2.43-1.97" style='fill-rule: evenodd; fill: #B3CFC0; stroke-width: 0.21; stroke: #007139; stroke-linecap: butt;'/>
  <path class="cls-1" d="M115.22,97.15c3.72-9.69,1.43-20.73,7.34-30.1,3.65-5.78,4.99-8.24,11.16-10.9,9.58,5.49,13,2.07,13-13h-7.53c-2.06-2.07-3.89-3.91-5.89-5.94,1.3-7.9,4.53-10.14,13.08-8.53-.65,1.97-1.3,3.92-1.94,5.86-.23.37-.46.73-.7,1.1,1.33.84,2.66,1.67,3.99,2.51-.3,1.47-.61,2.94-1.14,5.49,2.57-2.22,4.28-3.7,6.24-5.4,2.62,5.71,5.48,10.87,13.34,10.94-7.62,7.14-4.16,13.56.61,20.22h4.7v4.78c-2.11,1.2-4.64,2.64-7.75,4.41,0,2.37.19,5.23-.05,8.05-.27,3.02-.73,6.06-1.5,8.99-1.27,4.8-3.72,8.09-9.42,8.75-2.66.31-5.17,2.92-7.49,4.82-2.27,1.86-4.21,4.12-6.3,6.21-.18-.31-.35-.63-.53-.94-4.28,1.81-8.55,3.62-14.05,5.94-1.49-1.95-3.35-4.39-5.08-6.67,2.59-6.51,1.49-11.7-3.07-16.1" style='fill-rule: evenodd; fill: #B3CFC0; stroke-width: 0.21; stroke: #007139; stroke-linecap: butt;'/>
</svg>