<svg id="Grupo_529" data-name="Grupo 529" xmlns="http://www.w3.org/2000/svg" xmlns:xlink="http://www.w3.org/1999/xlink" width="45.621" height="52.149" viewBox="0 0 45.621 52.149">
  <defs>
    <clipPath id="clip-path">
      <rect id="Rectángulo_1500" data-name="Rectángulo 1500" width="45.621" height="52.149" fill="rgba(0,0,0,0.8)"/>
    </clipPath>
  </defs>
  <g id="Grupo_474" data-name="Grupo 474" clip-path="url(#clip-path)">
    <path id="Trazado_1681" data-name="Trazado 1681" d="M5.191,22.819c.049.284.222.554.1.882-.171.148-.5-.826-.6.064-.071.652-.259,1.3-.274,1.947-.016.674-.273.517-.687.186v1.16a7.305,7.305,0,0,1,.128-4.869A21.764,21.764,0,0,1,7.909,14.3c1.447-1.816,1.4-1.991-.8-2.529-.76-.185-.9-.418-.419-1.332-1.1.919-.614-.634-1.254-.382.027-.606-.259-.338-.444-.137-.7.766-1.286.519-1.849-.169-.1-.128-.179-.433-.424-.237-.971.776-1.373-.331-2.245-.54a3.139,3.139,0,0,1,2.142-.484c.55.1.82-.053.664-.676C3,6.7,2.786,5.578,2.476,4.479,2.235,3.623,1.22,3.616.694,3.026c-.22-.246-.57-.379-.694-.84A5.07,5.07,0,0,1,2.814,3.535C3.948,4.72,5.064,5.924,6.2,7.1a10.262,10.262,0,0,0,3.141,2.33l.265.2a.225.225,0,0,0-.1-.362c-.966-3.3.584-7.881,3.079-9.017L12,2.319l.2.138c.761-1.181,2.131-1.439,3.155-2.241C16.1-.373,16.641.391,17.2.786L17.069.97,15.756.414c.554.752,1.367,1.337.877,2.434-.391.044-.609-.352-.972-.391-.268.3.379.566.029.835-.045.035-.259-.148-.395-.231l-.233-.008.084.183c-.094.4,1.147.912-.111,1.236-.078.02-.043.48-.06.735A1.778,1.778,0,0,0,13.6,4.816c.1.432.653.812.138,1.217-.495.389-.309.725.079,1.186.2-.834.984-1.236,1.141-2.034A2.722,2.722,0,0,0,16.9,4.748a4.087,4.087,0,0,1,2.455-.525,2.134,2.134,0,0,0-1.279,2.135c-.026.447-.129.524-.519.313-.51-.276-.8.018-.968.462-.07.184-.124.512-.288.443-1.081-.452-.93.832-1.538,1.08a.8.8,0,0,0-.216,1.059c.22.361.582.114.89.055,3.2-.62,6.407-1.117,9.642-.238a7.168,7.168,0,0,1,1.9.77.666.666,0,0,1,.386.73c-.116.425-.434.155-.637.077-.482-.186-.6.453-1.095.4-.685-.077-.238.584-.394.88a4.79,4.79,0,0,0-.222.738c-.394-1.108-1.106-1.13-1.806-.661-.5.336-.481-.145-.618-.291-.254-.269-.38-.741-.875-.329l-.074-.225c-.236.113-.1.293-.083.453.051.655.525.951,1.044,1.175.871.376,1.746.747,2.638,1.069,1.946.7,2.678,2.25,3.036,4.334-.986-.911-2.216-1.117-2.969-2.063-.35.343-.67-.569-1.046-.017-.171.25-.347-.01-.476-.1-1.618-1.131-3.456-.972-5.275-.9a.635.635,0,0,1-.442-.117c-.853-.606-1.582-1.473-2.842-1.28-.132,1.052.6,1.676,1.408,2.185A30.624,30.624,0,0,1,20.688,19.3a10.024,10.024,0,0,1,3.384,6.774c-.793-.313-.379-1.525-1.336-1.655-.217-1.2-.523.213-.869-.188a.722.722,0,0,1-.118-.374c.072-.986-.861-1.5-1.086-2.358-.073-.278-.6-.1-.9-.358a11.166,11.166,0,0,1-2-2.291,5.134,5.134,0,0,0-1.078-1.229c-.261.162.391.839-.448.676-.158-.031-.055.559.079.857a37.536,37.536,0,0,1,1.907,5.463c.262.954-.407,1.8-.008,2.663-.2.165-.329.053-.354-.042-.44-1.687-2.027-2.91-1.915-4.85.02-.349-.4-.817-.587-1.248-.107-.246-.166-.22-.611.4a7.224,7.224,0,0,1-.92-4.34c-.576-.02-.528.645-.547.588-.172-.51-.887-.189-1.028-.757a1.789,1.789,0,0,0-.551-1.175,25.98,25.98,0,0,0-.784,6.331c.077,2.331-.075,4.669-.011,7,.2,7.374-.261,14.744-.044,22.117.015.51.012.842-.693.84s-.709-.324-.7-.839c.179-8.25.338-16.5.522-24.751.058-2.589.022-5.173-.168-7.9a2.178,2.178,0,0,0-.559,1.751c-.006.358-.02.546-.45.216-.4-.308-.407.257-.519.433-.155.245.177.652-.21.88l-.125-.1c0,.031-.012.071,0,.092.053.079.1.069.137-.022-.083.382-.372.858-.364,1.072.052,1.438-.6,2.711-.781,4.079a2.47,2.47,0,0,1-.309,1.406,15.6,15.6,0,0,1,.208-7.226c.079-.44.426-.844.228-1.371-.614.31-.266.85-.408,1.244a1.346,1.346,0,0,0-.72,1.151c.079.6-.484.16-.587.42l-.157-.311c-.131.142-.075.293-.023.444m14.9-10.8a2.5,2.5,0,0,0-1.223-.819c-.278-.105-.529-.264-.818-.11-.184.1-.106.286-.054.432.126.357.342.66.752.654a13.229,13.229,0,0,0,1.344-.157M4.043,6.3A2.186,2.186,0,0,0,3.8,7.967a.521.521,0,0,0,.785.311.41.41,0,0,0,.125-.57c-.8-.213-.345-.984-.663-1.411m7.9-3.385a2.345,2.345,0,0,0,.213-.345c.027-.072.06-.189-.079-.207-.166-.023-.2.109-.209.224a1.3,1.3,0,0,0,.075.329" transform="translate(0 0)" fill="rgba(0,0,0,0.8)"/>
    <path id="Trazado_1682" data-name="Trazado 1682" d="M109.392,134.387c-.609-.982-.794-1.971.249-2.754,1.062-.8,2.153-1.626,3.639-1.264a20.132,20.132,0,0,1,3.055,1.049c.267.113.57.189.676.514a.778.778,0,0,1-.007.754c-.182.243-.439.111-.624.02a4.288,4.288,0,0,0-2.8-.053,1.774,1.774,0,0,0-1.264.676,1.181,1.181,0,0,1-1.03.47c-.183.018-.394-.016-.467.22a.175.175,0,0,0,.069.156c.19.083.271-.1.4-.182a22.294,22.294,0,0,1,9.118,2.9,10.9,10.9,0,0,1,4.274,4.339c.369.659.4.639.806.837l-.02-.022c-.143.745.463,1.2.729,1.772.541,1.172.583,1.152-.638,1.292.008.06,0,.142.03.178.96.979.959.971-.444,1.386-.364.108-.772.166-.912.637-.057.191-.261.26-.465.312a35.815,35.815,0,0,1-5.018,1.262,11.915,11.915,0,0,1-9.767-3.109c-.789-.736-1.522-1.534-2.28-2.3a11.291,11.291,0,0,1-.741-2.967c.136-1.459.258-2.919.415-4.375a1,1,0,0,1,.886-1c.7-.121,1.371-.359,2.055-.546.163-.025.352.075.484-.1l-.407-.1" transform="translate(-85.044 -104.564)" fill="rgba(0,0,0,0.8)"/>
    <path id="Trazado_1683" data-name="Trazado 1683" d="M87.706,181.971c-.394-.392-.563-.743-.849.2a4.91,4.91,0,0,0,.252,4.232,2.916,2.916,0,0,1,.168,2,5.67,5.67,0,0,1-3.771-5.935,3.8,3.8,0,0,0,0-.885c-.146-1.262.737-1.809,1.62-2.342a2.611,2.611,0,0,1,2.56.138c.037.016.034.122.049.185-.282.8.5,1.606-.034,2.4" transform="translate(-66.992 -143.636)" fill="rgba(0,0,0,0.8)"/>
    <path id="Trazado_1684" data-name="Trazado 1684" d="M169.851,222.5c1.364-.424,2.612-.808,3.856-1.2.2-.063.378-.124.523.081.511.717,1.584,1.059,1.722,1.935.127.81.846,1.669.112,2.532-.461.542.2.79.322,1.19a3,3,0,0,1-3.4-.854c-1.161-1.085-1.818-2.576-3.136-3.682" transform="translate(-136.323 -177.563)" fill="rgba(0,0,0,0.8)"/>
    <path id="Trazado_1685" data-name="Trazado 1685" d="M82.523,154.441c-1.2-.873-2.649-.919-3.864-1.6-.52-.292-.961-.669-1.442-1-.385-.265-.177-.592,0-.859a2.351,2.351,0,0,1,2.546-1.083c.954.187,1.884.5,2.831.728.4.1.52.205.336.652-.4.975-.061,2.076-.41,3.164" transform="translate(-61.8 -120.263)" fill="rgba(0,0,0,0.8)"/>
    <path id="Trazado_1686" data-name="Trazado 1686" d="M201.614,182.8c0-.66-.642-1.024-.8-1.765a18.835,18.835,0,0,1,5.609,1.707c.205.1.552.468.261.585-.477.192.281,1.121-.752.983-.43-.057-1.24-.237-1.663.41-.031.048-.251.044-.255.028-.324-1.137-2.108-.572-2.245-1.922,0-.021-.111-.031-.17-.047l.02.021" transform="translate(-161.171 -145.303)" fill="rgba(0,0,0,0.8)"/>
    <path id="Trazado_1687" data-name="Trazado 1687" d="M104.819,184.448c.538-.792-.247-1.6.034-2.4q.084,0,.168,0a11.306,11.306,0,0,0,.741,2.967c-.438.012-.837-.04-.943-.573" transform="translate(-84.105 -146.113)" fill="rgba(0,0,0,0.8)"/>
    <path id="Trazado_1688" data-name="Trazado 1688" d="M131.053,148.295c-.126.077-.207.265-.4.182a.175.175,0,0,1-.069-.156c.072-.236.284-.2.467-.22,0,.065,0,.129,0,.194" transform="translate(-104.808 -118.866)" fill="rgba(0,0,0,0.8)"/>
    <path id="Trazado_1689" data-name="Trazado 1689" d="M123.035,151.078l.407.1c-.132.176-.321.076-.484.1l.077-.2" transform="translate(-98.686 -121.256)" fill="rgba(0,0,0,0.8)"/>
    <path id="Trazado_1690" data-name="Trazado 1690" d="M108.981,59.307c-.019-.16-.153-.34.083-.453l.074.225-.158.228" transform="translate(-87.424 -47.236)" fill="rgba(0,0,0,0.8)"/>
    <path id="Trazado_1691" data-name="Trazado 1691" d="M86.605,3.982l.292.156a.355.355,0,0,1-.424.028l.132-.184" transform="translate(-69.404 -3.196)" fill="rgba(0,0,0,0.8)"/>
    <path id="Trazado_1692" data-name="Trazado 1692" d="M69.6,24.686c-.156.8-.945,1.2-1.141,2.034-.388-.461-.574-.8-.079-1.186.515-.4-.041-.786-.138-1.217a1.779,1.779,0,0,1,1.376.392l-.019-.023" transform="translate(-54.644 -19.5)" fill="rgba(0,0,0,0.8)"/>
    <path id="Trazado_1693" data-name="Trazado 1693" d="M93.023,56.836a13.166,13.166,0,0,1-1.344.157c-.41.006-.627-.3-.752-.654-.051-.145-.13-.333.054-.431.289-.154.541,0,.818.11a2.5,2.5,0,0,1,1.223.819" transform="translate(-72.929 -44.82)" fill="rgba(0,0,0,0.8)"/>
    <path id="Trazado_1694" data-name="Trazado 1694" d="M19.14,31.9c.319.427-.138,1.2.663,1.411a.41.41,0,0,1-.125.57.521.521,0,0,1-.785-.311A2.185,2.185,0,0,1,19.14,31.9" transform="translate(-15.097 -25.6)" fill="rgba(0,0,0,0.8)"/>
    <path id="Trazado_1695" data-name="Trazado 1695" d="M33.833,101.9c.142-.394-.206-.934.408-1.244.2.526-.148.93-.228,1.371l-.18-.127" transform="translate(-27.154 -80.788)" fill="rgba(0,0,0,0.8)"/>
    <path id="Trazado_1696" data-name="Trazado 1696" d="M60.173,12.489a1.3,1.3,0,0,1-.075-.329c.012-.114.044-.247.209-.224.138.019.105.136.079.207a2.345,2.345,0,0,1-.213.345" transform="translate(-48.234 -9.578)" fill="rgba(0,0,0,0.8)"/>
    <path id="Trazado_1697" data-name="Trazado 1697" d="M47.5,46.967a.225.225,0,0,1,.1.362l-.265-.2.167-.163" transform="translate(-37.99 -37.696)" fill="rgba(0,0,0,0.8)"/>
    <path id="Trazado_1698" data-name="Trazado 1698" d="M26.066,113.793c-.051-.151-.107-.3.023-.444l.158.31-.181.134" transform="translate(-20.875 -90.974)" fill="rgba(0,0,0,0.8)"/>
    <path id="Trazado_1699" data-name="Trazado 1699" d="M76.391,15.655l-.084-.183.233.008-.149.175" transform="translate(-61.244 -12.418)" fill="rgba(0,0,0,0.8)"/>
    <path id="Trazado_1700" data-name="Trazado 1700" d="M40.468,110.7c-.035.091-.084.1-.137.022-.014-.022,0-.061,0-.092l.125.1.014-.027" transform="translate(-32.364 -88.794)" fill="rgba(0,0,0,0.8)"/>
  </g>
</svg>
