<svg id="Grupo_528" data-name="Grupo 528" xmlns="http://www.w3.org/2000/svg" xmlns:xlink="http://www.w3.org/1999/xlink" width="45.587" height="49" viewBox="0 0 45.587 49">
  <defs>
    <clipPath id="clip-path">
      <rect id="Rectángulo_1499" data-name="Rectángulo 1499" width="45.587" height="49" fill="rgba(0,0,0,0.8)"/>
    </clipPath>
  </defs>
  <g id="Grupo_472" data-name="Grupo 472" clip-path="url(#clip-path)">
    <path id="Trazado_1666" data-name="Trazado 1666" d="M75.614,94.417c.61-.317,1.221-.631,1.83-.951.392-.206.779-.418,1.364-.732-1.411-.3-2.764.361-4.036-.628l3.824-.94c-1.634-.582-3.2-.787-4.059-2.49l2.7,1.024L74.5,86.655l.274-.29L76.4,87.538a6.984,6.984,0,0,1-1.124-2.029c-.073-.444.528-1,.88-1.592l.735.214.087-.073-.606-.335,2.547-4.085c.034.02.139.059.137.085-.205,1.864,1.026,3.082,1.946,4.458a5.142,5.142,0,0,1,.44,1.46l.524-.554.323.178-1.624,3.374,2.274-2.032.281.19-2.088,3.078c2-1.185,3.585.4,5.341.36-1.061-.874-2.843-.7-3.586-2.414l3.211.7c-.945-.889-2.264-.927-2.683-2.182l4.35.906c-1.267-.761-2.667-1.3-3.695-2.824l3.215.977-2.328-3.877.352-.238,2.712,2.868-1.792-4.432.382-.206.8,1.1a5.523,5.523,0,0,1,.494-1.892c.632-.931,1.535-1.673,2.247-2.556a2.9,2.9,0,0,0,.422-1.235,10.547,10.547,0,0,1,.338-1.647c.85,1.685,1.223,3.6,2.865,4.909l-1.487,1.041,1.916-.518-.415,1.367.993-.493c-.491.769.4,1.391-.37,2.006a17.018,17.018,0,0,0-1.8,2L95.3,81.856l.231.275a16.426,16.426,0,0,1-3.495,3.447l2.988-.732c-.137.981-.366,1.1-4.833,2.439l4.524,1.493c-1.754,1.152-3.43.024-5.129.354l4.218,2.348c-1.786.771-3.093-.389-4.608-.606l3.684,2.785c-1.28.686-2.151-.493-3.558-.628L92,94.779c-1.355.6-2.372-.2-3.516-.428l2.275,1.536-.032.251-2.31-.275,1.3,1.1-.2.321-3.683-1.061-.068.147,1.665,1.2-.126.378L84.715,97.8l1.757,1.3-1.5.37c.357.327.828,1.06,1.159,1,.937-.165.836.783,1.5,1.028l.26-.889.7.3-.623-.89.1-.186,1.3.6c-.3-.52-.583-1.013-.851-1.517-.038-.071.027-.2.06-.385l1.659,1.315L89.183,97.8l.209-.131L91.1,99.018,90,97.077l.248-.186,1.392,1.142L90.8,96.284l.216-.156,1.953,1.593L91.854,95.4l.208-.158L93.5,96.6c-.061-1-.117-1.939-.174-2.875l.375-.047.527,1.9.579-2.635.21.019.089.545a10.055,10.055,0,0,1,1.343-.871c1.143-.518,2.461-.759,3.049-2.11V94.28l-1.074.14,1.047.193c.123,1.157-.073,2.074-1.366,2.372h1.193l.074.272-2.977.916,1.962.492c-1.159.708-2.237.407-3.447.269l1.866,1.962c-1.283.2-1.888-.868-3.046-1.271l1.548,2.536-.2.216-2.038-1.5,1.212,2.66-1.536-.917.458.985-.152.212-1.45-1.061.587,1.321-1-.315-.247.991-1.446-2-.257.2.5,1.244-1.334-.407.274,1.122-.858-.3c.02.232.036.423.069.82l-2.391-1.807a9.678,9.678,0,0,1-2.257,1.869,4.887,4.887,0,0,1-4.278.162c-.556-.295-1.269-.462-1.626.455a3.277,3.277,0,0,1-.65.8c-.012-.62.2-1.432-.106-1.88-.289-.417-1.137-.448-1.834-.68-.094-.254-.5-.8-.415-1.26a4.937,4.937,0,0,1,.972-1.606c.064-.093.352-.122.347-.158-.1-.828-.263-1.65-.328-2.48-.069-.878-.254-1.582-1.333-1.6-.146,0-.288-.163-.659-.387l1.4-.663v-2.08c.36.113.643.2.924.293.029.332.061.66.1,1.05l1-.588.245.785,1.924-1.3c-.438-.041-.8.174-1.151.151-.711-.049-1.464.735-2.133-.09m1.017,3.9,2.682-.925-.063-.138-2.509.267q-.024-.162-.048-.323l1.782-.972a4.579,4.579,0,0,0-1.466.246c-1.351.353-1.55.582-1.418,1.91.083.829.238,1.652.4,2.47.037.188.224.347.439.661l.968-2.365-.308.056-.457-.887m7.215,3.627-2.3,2.806c.26-.313.706-.783,1.01-.7,1.143.294,1.39-.624,2.008-1.206l-.717-.9m-6.133,0,1.385-.336a3.522,3.522,0,0,0-.658-.355c-.113-.025-.249.056-.6.149l1.08-3.065.284.076-1.494.23Zm3.776-2.9L81.5,98.9l-2.259.5c.061.732.321.942.883.563l1.367-.921m2.31-8.09c-1.25-1.169-1.894-.013-2.685.242l2.685-.242" transform="translate(-57.924 -57.91)" fill="rgba(0,0,0,0.8)"/>
    <path id="Trazado_1667" data-name="Trazado 1667" d="M5.98,39.045l6.124-2.11c.029.076-.01-.049-.065-.167-.275-.586-.585-1.2.178-1.641.741-.429,1.308.056,1.725.554,1.431,1.708,1.424,1.73,3.562,1.02,1.872-.621,5.145.547,6.143,2.253a1.359,1.359,0,0,1,.1,1.157A8.246,8.246,0,0,1,21.7,42.666a37.68,37.68,0,0,1-5.212,2.6c-1.062.467-1.191.739-.32,1.664l.544-.743.469,1.47,1.568-.457c-.512.569-1.086.937-1.163,1.389-.052.3.6.728.935,1.1-.887,0-1.639,0-2.391,0-.066,0-.129.054-.2.07-2.543.6-3.388.494-2.8-2.562-.7.278-1.269.531-1.857.731s-1.2.352-1.735.5c.427.548,1.15,1.1,1.288,1.765.13.628-.357,1.384-.573,2.084l-.358.05c.439.176.886.333,1.312.534a7.288,7.288,0,0,1,.778.486l-.894.5c.244,1.141,1.7,1.141,2.294,2.273-.722-.279-1.243-.521-1.787-.682-1.169-.345-1.466-.052-1.215,1.139a2.832,2.832,0,0,1,.027.4c-.125-.021-.229-.008-.254-.046-1.3-2-3.495-2.779-5.386-3.991a10.936,10.936,0,0,1-2.949-2.7c-.936-1.3-.545-2.37.816-3.222a2.339,2.339,0,0,0-.434-.687,2.246,2.246,0,0,1-.737-2.437A.939.939,0,0,0,.9,42.732c-.886-.437-1.17-1.751-.608-3.1a7.4,7.4,0,0,1,3.486-3.756c.874-.457,1.478-.169,1.741.792.226.824.332,1.681.463,2.375" transform="translate(0 -27.629)" fill="rgba(0,0,0,0.8)"/>
    <path id="Trazado_1668" data-name="Trazado 1668" d="M115.377,15.021a19.706,19.706,0,0,0,2.023,1.762c2.022,1.324,2.834,3.231,2.94,5.782l-2.4-1.774c-.058.883-.115,1.736-.171,2.59l-.393.116c-.369-.59-.779-1.158-1.1-1.773-.834-1.6-1.66-3.2-2.427-4.828a1.138,1.138,0,0,0-1.787-.621,9.939,9.939,0,0,1-.629-1.261,5.6,5.6,0,0,0-3.709-3.555c-1.563-.564-3.151-1.058-4.825-1.615l.789,5.187-.365.086a3.207,3.207,0,0,1-1.116-3.085c.047-.344.121-.685.174-1.028.164-1.06-.225-1.558-1.271-2.1A43.511,43.511,0,0,1,95.861,5.35c-.241-.173-.319-.562-.5-.833-.229-.342-.487-.665-.746-1.015a1.14,1.14,0,0,0,.082-.565A2.688,2.688,0,0,1,95.588.273,1.29,1.29,0,0,1,96.622.018C98.191.3,99.74.7,101.311.965c2.446.417,4.535,1.674,6.756,2.648a10.871,10.871,0,0,0,3.481.451c.857.064,1.723.013,2.809.013a5.735,5.735,0,0,1-4.216,1.916c.311.379.5.6.682.833.76.993,1.554,1.963,2.263,2.991a6.647,6.647,0,0,0,2.414,2.36c.756.395,1.2,1.393,1.935,2.318l-2.058.526" transform="translate(-74.753 -0.001)" fill="rgba(0,0,0,0.8)"/>
    <path id="Trazado_1669" data-name="Trazado 1669" d="M85.145,184.735l.457.887.308-.056-.968,2.365c-.215-.314-.4-.473-.439-.661-.159-.818-.315-1.641-.4-2.47-.132-1.328.067-1.557,1.418-1.91a4.573,4.573,0,0,1,1.466-.246l-1.782.972.048.323,2.509-.267.063.139-2.682.925" transform="translate(-66.437 -144.332)" fill="rgba(0,0,0,0.8)"/>
    <path id="Trazado_1670" data-name="Trazado 1670" d="M114.916,209.923l.718.9c-.619.582-.866,1.5-2.009,1.206-.3-.078-.75.392-1.01.7l2.3-2.806" transform="translate(-88.994 -165.892)" fill="rgba(0,0,0,0.8)"/>
    <path id="Trazado_1671" data-name="Trazado 1671" d="M94.345,196.342v-3.3l1.494-.23-.284-.076L94.474,195.8c.349-.093.485-.173.6-.148a3.5,3.5,0,0,1,.658.355l-1.385.336" transform="translate(-74.556 -152.309)" fill="rgba(0,0,0,0.8)"/>
    <path id="Trazado_1672" data-name="Trazado 1672" d="M84.339,173.8c.669.826,1.422.042,2.133.09.349.024.713-.192,1.151-.151l-1.924,1.3-.245-.785-1,.588c-.038-.39-.07-.718-.1-1.05l-.012.011" transform="translate(-66.649 -137.296)" fill="rgba(0,0,0,0.8)"/>
    <path id="Trazado_1673" data-name="Trazado 1673" d="M103.872,195.565l-1.367.921c-.562.379-.822.169-.883-.563l2.259-.5Z" transform="translate(-80.307 -154.433)" fill="rgba(0,0,0,0.8)"/>
    <path id="Trazado_1674" data-name="Trazado 1674" d="M113.246,155.6l-2.685.242c.791-.255,1.435-1.411,2.685-.242" transform="translate(-87.371 -122.554)" fill="rgba(0,0,0,0.8)"/>
    <path id="Trazado_1675" data-name="Trazado 1675" d="M113.246,155.6l-2.685.242c.791-.255,1.435-1.411,2.685-.242" transform="translate(-87.371 -121.554)" fill="rgba(0,0,0,0.8)"/>
    <path id="Trazado_1676" data-name="Trazado 1676" d="M113.246,155.6l-2.685.242c.791-.255,1.435-1.411,2.685-.242" transform="translate(-87.371 -120.554)" fill="rgba(0,0,0,0.8)"/>
    <path id="Trazado_1677" data-name="Trazado 1677" d="M113.246,155.6l-2.685.242c.791-.255,1.435-1.411,2.685-.242" transform="translate(-87.371 -119.397)" fill="rgba(0,0,0,0.8)"/>
    <path id="Trazado_1678" data-name="Trazado 1678" d="M113.246,155.6l-2.685.242c.791-.255,1.435-1.411,2.685-.242" transform="translate(-87.371 -118.24)" fill="rgba(0,0,0,0.8)"/>
    <path id="Trazado_1679" data-name="Trazado 1679" d="M113.246,155.6l-2.685.242c.791-.255,1.435-1.411,2.685-.242" transform="translate(-87.371 -117.083)" fill="rgba(0,0,0,0.8)"/>
    <path id="Trazado_1680" data-name="Trazado 1680" d="M114.209,155.78l-3.648.329c1.075-.346,1.95-1.916,3.648-.329" transform="translate(-87.852 -116.061)" fill="rgba(0,0,0,0.8)"/>
  </g>
</svg>
