<svg id="Grupo_530" data-name="Grupo 530" xmlns="http://www.w3.org/2000/svg" xmlns:xlink="http://www.w3.org/1999/xlink" width="54.888" height="49" viewBox="0 0 54.888 49">
  <defs>
    <clipPath id="clip-path">
      <rect id="Rectángulo_1501" data-name="Rectángulo 1501" width="54.888" height="49" fill="rgba(0,0,0,0.8)"/>
    </clipPath>
  </defs>
  <g id="Grupo_476" data-name="Grupo 476" clip-path="url(#clip-path)">
    <path id="Trazado_1701" data-name="Trazado 1701" d="M68.917,35.755a3.428,3.428,0,0,1-1.9-2.42,7.462,7.462,0,0,0-1.194-2.817c-.193,1.225.488,2.156.339,3.262L65.3,32.555c-.064-.2-.132-.393-.373-.443l.019.024c.437-1.118-.352-1.837-.859-2.648l.018-.035c-.068-.525-.351-1.083.234-1.506.584-.188.769-.57.451-1.1-.386-.639-.626-.119-.923.137a2.664,2.664,0,0,1-.639.308H62.94c-.127-.2-.629-.133-.434-.565.1-.211.061-.523.532-.4.426.113.643-.366.8-.7,1.056-2.259,3.065-2.985,5.307-3.382a1.215,1.215,0,0,0,1-1.372,5.275,5.275,0,0,0-.371-1.6c-.207-.547-.027-.77.583-.878a3.842,3.842,0,0,0,.263,1.811,2.315,2.315,0,0,1-.719,2.63c-.432.45-.936.867-.726,1.618.065.234-.128.384-.3.51a7.044,7.044,0,0,0-1.526,1.711c-.162.233-.348.5-.664.423-.7-.172-.972.135-1.077.787-.053.331-.017.508.3.659.621.293.931-.1,1.214-.571.569.986,1.318,1,2.013.158.516-.627,1.291-.323,1.948-.446.009.305-.369.508-.225.849-.277.09-1.093-.86-.76.392.053.2-.018.24-.176.243-.325.007-.708.023-.677.443.024.323.4.136.611.21.086.03.238.1.232.131-.233,1.1.532.392.817.411.205.014.479-.258.686-.129.929.577,1.837-.1,2.755-.008.3.029.621-.092.608-.592a5.076,5.076,0,0,1-1.8.123c.615-.589,1.47-.376,2.163-.815a1.942,1.942,0,0,0-1.312-.12c-.867.12-1.731.255-2.594.4-.637.106-.666-.253-.577-.718.289.1.622.229.756-.164a.515.515,0,0,0-.409-.681.642.642,0,0,0,.421-.748.476.476,0,0,1,.377-.629c.987-.275.933-1.1.932-1.859,0-.509-.206-1.1-.7-1.173-.449-.068-.545.56-.628.932-.28,1.27-1.312,1.968-2.089,2.86-.182.209-.478.4-.723.137a.508.508,0,0,1,.122-.818c1.413-.564,1.362-2.032,2.033-3.044a6.969,6.969,0,0,0,1.349-3.528c.023-.4.388-.458.648-.6,1.069-.579,2.147-1.143,3.221-1.713l.176.221c-.315.967.571.334.789.592a2.235,2.235,0,0,0-.42,1.259.81.81,0,0,1-.377.812,2.942,2.942,0,0,0-1.44,1.571.578.578,0,0,1-.7.337c-.392-.1-.25-.444-.225-.7a1.711,1.711,0,0,1,1.1-1.626,2.12,2.12,0,0,0,.678-.469c.194-.185.443-.429.165-.711a.607.607,0,0,0-.846-.1,4.561,4.561,0,0,0-2.305,3.845c0,.646.214,1.064,1.073,1.035,1.774-.06,2.591-2.016,4.358-2.082.22-.008.417-.674.622-1.036.257-.454.4-1.125.788-1.321.971-.493,1.1-1.452,1.545-2.238.2-.354.329-.741-.119-1-.532-.312-.622.223-.845.489-.346.414-.29,1.12-.9,1.329a9.109,9.109,0,0,1-2.176.634c.233-.773,1-1,1.524-1.476.244-.223.467-.4.382-.773a.356.356,0,0,0-.346-.313.679.679,0,0,0-.753.416,2.267,2.267,0,0,1-1.384,1.313l-.216-.158.306-.381.236-.278a.3.3,0,0,0-.428.08,10.841,10.841,0,0,0-5.156,2.718c.036-.868.716-1.374.715-2.085,0-.036.117-.114.156-.1,1.564.506,2.4-.573,3.293-1.516.111-.117.252-.225.335-.141.8.822,1.327.119,1.915-.32.659-.491,1.276-.523,1.752.255.091.149.18.2.318.109.849-.547,1.895-.8,2.54-1.653.1-.138.146-.323.314-.4.235.669-.121,1.067-.385,1.492a1.9,1.9,0,0,0-.44,1.492,1.953,1.953,0,0,0,1.2-1.481,8.312,8.312,0,0,1,.8-1.888.882.882,0,0,1,.568-.519,2.806,2.806,0,0,0,1.963-1.847c1.024,1.652,1.19-.41,1.855-.289.23.269-.006.589.069.883.083.325.009.786.411.864.381.075.645-.311.757-.619.563-1.547,1.972-2.568,2.407-4.288A1.8,1.8,0,0,1,91.9,9.6a3.877,3.877,0,0,0-.451,1.271c-.146.683-.029,1.475-1.134,1.483-.335,0-.544.507-.7.859-.149.324.183.415.337.544.249.21.325.006.4-.229a.955.955,0,0,1,1.028-.714c.733.014.906-.443.8-1.04a3.133,3.133,0,0,1,.535-2.476,1.134,1.134,0,0,0,.234-.981c-.157-.584-.227-1.134.7-.78a.224.224,0,0,0,.315-.177.534.534,0,0,0-.266-.619c-.451-.247-1.013-.28-1.384-.7.1-.283.593-.023.521-.293a1.458,1.458,0,0,0-.691-1.009c-1.163-.521-.365-1.238-.138-1.785.284-.684,1.156-1.128,1.615-.592.96,1.121,1.8.529,2.73.177.314-.119.643-.2,1.062-.33a3.071,3.071,0,0,1-.636-1.7c-.026-.163-.147-.352.062-.46a.412.412,0,0,1,.544.172c.021.028.057.052.064.082.367,1.734,2.083,1.68,3.179,2.458a10.754,10.754,0,0,0,2.621,1.287c.668.245,1.184,2.182.9,2.846-.181.429-.754.139-.906.6.124.4.813-.373.836.327.016.5-.339.736-.717.939a26.243,26.243,0,0,0-3.372,1.888.98.98,0,0,1-.806.125,2.344,2.344,0,0,0-1.623.1.571.571,0,0,1-.766-.1.683.683,0,0,1,.129-.867,1.8,1.8,0,0,1,1.847-.809c-.139-.421-.506-.149-.682-.421.234-.395.822-.612.75-1.2-1.644.057-3.09,2.28-2.405,3.747.26.557.7.43,1.046.219a1.893,1.893,0,0,1,1.63-.221,3.372,3.372,0,0,0-1.024,3.458A1.2,1.2,0,0,1,97.32,16.1a9.2,9.2,0,0,1-3.525.887c-.976.061-1.182-.327-.785-1.236a9.2,9.2,0,0,1,1.669-2.394c-1.264.313-2.942,2.6-3.7,4.91a9.929,9.929,0,0,0,4.931-1.13c.677-.331,1.7.277,2.034-1.029.279.832-.181,1.332-.2,1.864a10.233,10.233,0,0,1-2.6,6.759c-.8-.091-1.321.476-1.933.825a.3.3,0,0,0-.125.441c.123.2.305.114.434,0a3.864,3.864,0,0,1,1.373-.631c-.312.762-.418,1.638-1.2,2.139a1.464,1.464,0,0,0-.163-.249.7.7,0,0,0-.827-.179.316.316,0,0,0-.189.412c.11.406.432.348.739.341.192,0,.3.137.379.29a5.9,5.9,0,0,0-.582,2.04c-.046.373-.127.666-.521.78-.107.115-.438.059-.336.286.054.12.35.084.482-.111l.209.01c-.193.807.77,1.265.62,2.059-.549,0-1.146-.529-1.687.142.447.1.848.156,1.234.27.453.132.419-.161.428-.436a7.9,7.9,0,0,0,1.594,1.277,2.08,2.08,0,0,1,.437.285c.458.448.959,1,.563,1.618-.336.525-1.028.431-1.6.228-.22-.079-.427-.323-.642-.058-.183.225.1.347.178.52.43.924-.5,1.132-.891,1.616-.754.939-1.98.464-2.907.919-.227.111-.474-.089-.655-.249-1.228-1.085-2.222-2.318-2.067-4.077.045-.51-.455-.263-.536-.6a17.683,17.683,0,0,0-.688-1.915c.548-.112,1.155.309,1.57-.357-.627-.216-1.356.1-1.919-.528.62-.252,1.372-.1,1.912-.69-.736-.1-1.373-.187-2.011-.264a.412.412,0,0,1-.376-.426c-.021-.263.225-.2.369-.229.922-.217,1.344-1.074,2.036-1.585a.246.246,0,0,0,.086-.358.244.244,0,0,0-.429-.006,1.873,1.873,0,0,1-2.746.54c.1-.48.139-1.006,1.066-.836a2.742,2.742,0,0,0,2.414-1.708,1.977,1.977,0,0,1,2.193-1.083,1.461,1.461,0,0,0-2.405-.217,6.778,6.778,0,0,0-.642,1.181,1.779,1.779,0,0,1-2.248.892c-.609-1.1.4-.915.9-1.129.193-.082.575.035.473-.356a.5.5,0,0,0-.64-.387,2.083,2.083,0,0,0-1.458,1.2c-.275.6-.191.9.524.853-.009.578-.074,1.083-.854.654l-.2-.1.009.255c.064.407.36.757.3,1.24-.607.181-.955-.472-1.491-.5-.253.39.188.642.154.994-.657.268-.793-.739-1.413-.593-.241.416.232.684.223,1.137-.573.069-1-.352-1.6-.467.746,1.926-.908,2.962-1.6,4.351a2.4,2.4,0,0,0-.36,1.33,17.48,17.48,0,0,1-.131,2.68c-.065.679.1.986.854.822.418-.091.911-.511,1.29.131.075.127.236-.016.348-.091,1.581-1.046,2.327-1.069,3.741-.09.293.2.806.351.6.831-.242.573.3,1.336-.91,1.731a8.106,8.106,0,0,1-3.425.419c-2.113-.206-4.154.472-6.251.461a6.262,6.262,0,0,0-2.389.137c-.213.082-.519.125-.593-.217-.1-.484-.621-.65-.83-1.151.678-.03,1.268-.351,1.843.412.392.52.782-.176,1.177-.46-1.013-.025-1.711-.922-2.9-.806.961-.835-.1-1.052-.248-1.635.9.519,2.02.55,2.74,1.383.358.414.65.487,1,.046a.866.866,0,0,1,.922-.338.677.677,0,0,0,.836-.514c-.722.124-1.483-.338-2.109.326-.053.057-.293.027-.372-.045a5.162,5.162,0,0,0-2.384-1.132.993.993,0,0,1-.808-.956c-.047-.5-.48-.83-.848-1.156.03-.328.469-.062.525-.373l-.873-.195m18.792-11.64c.643-.184.53-.539.171-1l-.325.78-.179.241c-.6.055-.839-.521-1.295-.727-.406-.184-.771-.457-1.2-.072-.331-.76.654-1.278.351-2.087-.6.56-.765,1.662-2.052,1.472.961.177.479.848.657,1.256l-.122-.067-.013.129.121-.094c.215.113.435-.3.649.006a.592.592,0,0,0,.062.746c.281.238.482-.119.7-.246.429-.246.87-.564,1.27,0,.508.719.763.229,1.05-.185l.148-.15M74.581,34.285a1.335,1.335,0,0,0-.3-.061c-.425.01-.731.189-.761.649a.347.347,0,0,0,.368.4.62.62,0,0,0,.685-.705c0-.1-.01-.2-.014-.309a4.717,4.717,0,0,0,.682-.245c.2-.109.431-.265.327-.551a.36.36,0,0,0-.434-.186c-.22.046-.475.051-.555.355-.059.225.248.439,0,.655m-4.8-2.323c.333-.164.692.559.984,0a1.133,1.133,0,0,0,.133-.849c-.129-.272-.546-.3-.85-.259-.558.083-.129.574-.3.831a1.619,1.619,0,0,0-1.431-.6c.2.381.393.713.552,1.059.116.252.17.585.522.554.453-.04.347-.439.385-.735m6.019-4.7a2.218,2.218,0,0,1,1.735.312c.356.243.63.328.908.093.3-.252.039-.584-.064-.862-.145-.391-.465-.345-.789-.266-.3.074-.547.523-.932.019a.763.763,0,0,0-1.129-.109c-.363.356.4.478.3.841-.466,0-.917.025-1.174.609.575-.043,1.1.46,1.524.087.274-.241-.3-.444-.384-.725m11.6-14.8c-1.862-.354-3.9,1.459-4.009,3.607-.016.315.189.7-.251.923-1.99.987-2.359,3.086-3.268,4.809-.128.242,0,.778-.5.473-.862-.518-.855.141-.932.64-.084.551-.1,1.112-.134,1.669-.011.2.038.565.247.465.568-.27,1.328-.544,1.556-1.03.442-.943,1.27-1.666,1.424-2.8.1-.715.725-1.326.882-2.092.05-.244.268-.555.462-.511.73.165.711-.417.972-.87,0,1,1.295,1.212,1.2,2.293.774-2.564.994-5.257,2.35-7.577M75.8,24.4c-.891-1.006-1.713-.569-2.38,1.333.761-1.087,1.966.509,2.714-.655.1.09.233.163.289.274a.689.689,0,0,0,.779.391c.393-.082.467-.48.522-.821a14.916,14.916,0,0,1,.082-2.489c-.444.9-2.082.388-2.006,1.966M64.71,25.68c1.379.989,1.622.959,2.619-.228a2.474,2.474,0,0,1,.521-.5c.429-.277.606-.644.226-1.013a.709.709,0,0,0-1.122-.074A9.022,9.022,0,0,1,64.71,25.68m8.5,11.849c-.27.029-.272-.1-.281-.192-.066-.652-.428-.706-.953-.5-.643.248-.46.645-.228,1.074.253.468.49.649,1.058.305,1.237-.749,1.874-2.214,3.314-2.706.128-.043.206-.232.5-.582-1.7.509-2.9,1.173-3.409,2.6m16.879-7.1a11.44,11.44,0,0,0-.029-2.06c-.094-.458-.195-1.11-.694-1.256-.558-.164-.325.67-.726.836a.319.319,0,0,0-.186.444c.3.217.473-.365.848-.113-.592.859.088,1.363.786,2.149m5.29-9.35a1.591,1.591,0,0,0-1.144-1.1c-.611-.137-1.254-.1-1.554-.822-.074-.179-.414-.168-.4-.02a4.94,4.94,0,0,0,.3,1.158.392.392,0,0,0,.576.274c.524-.282.8.012,1.14.348a.874.874,0,0,0,1.088.16M68.972,34.865a3.244,3.244,0,0,0-1.837-3.612c.464,1.359,1.369,2.376,1.837,3.612M95.7,8.655c1.193-.688,1.6-1.855,2.182-2.892.1-.182.255-.488-.082-.616-.193-.074-.521.026-.527.219-.041,1.313-1.526,1.89-1.574,3.289M71.307,36.926c-.044-.443-.153-.852.2-1.243.279-.307.08-.76-.225-1-.193-.155-.6-.287-.764-.188-.343.208-.019.542.03.826a1.456,1.456,0,0,1,.052.614c-.2.678-.219.673.7.995M90.581,16.2a3.457,3.457,0,0,1,1.024-1.642,3.8,3.8,0,0,0,.61-.949c.106-.215.041-.417-.28-.348-.808.175-1.7,1.972-1.354,2.939M80.226,26.372c-.121-.26.036-.813-.446-.743-.324.047-.868.192-.81.773.041.408.1.994.516,1,.455.008.709-.5.74-1.031m4.018-7.378a2.539,2.539,0,0,0-.844,2.1.5.5,0,0,0,.3.5c.244.075.333-.2.467-.338.648-.682.042-1.366.081-2.257M66.4,30.481c.173-.348.386-.572.367-.775-.06-.63-.7-.749-1.117-.872s-.689.586-.655.8c.121.772,1.1.033,1.405.844m7.122,8.259c.957-.467,2.222-.362,2.853-1.5a7.6,7.6,0,0,0-2.853,1.5M80.8,26.309c.14-1.1,1.282-1.877,1.014-3.375-.4,1.289-1.714,1.991-1.014,3.375m.967.128c-.952.641-.976,1.6-.2,2.064a.428.428,0,0,0,.488.005c.157-.112.075-.257-.009-.361a2.209,2.209,0,0,1-.275-1.708M67.291,29.447c.063.81.405,1.22,1.2,1.032.218-.051.585-.1.45-.417-.3-.711-.935-.719-1.654-.614M73.728,33.2c-.155-.206-.317-.445-.574-.4-.589.1-.682.647-.789,1.1-.037.16.224.363.465.281.462-.158.651-.579.9-.986m-1.223,1.5c-.305.081-.7.1-.669.589.018.346.069.81.455.816.675.011.231-.73.55-1.043.177-.174-.065-.351-.336-.362M88.96,22.862c.328-.464,1.149-.419,1.23-1.146.017-.155-.261-.392-.336-.247-.284.556-1.127.246-1.279.872a.408.408,0,0,0,.386.52m.717,8.457c-.532.421-.976.753-1.395,1.114a.427.427,0,0,0-.1.567c.08.142.268.236.314.121.264-.658,1.27-.821,1.177-1.8m-7.025-8.6a3.029,3.029,0,0,0-.26.619.944.944,0,0,0,.383.915c.1.087.272.152.351,0a1,1,0,0,0-.066-.9c-.1-.211-.07-.5-.408-.631m7.2,9.817c-.253.472-.515.94-.755,1.418a.337.337,0,0,0,.095.463c.186.095.321-.064.4-.23.228-.493.587-.948.262-1.651M77.533,34.063a1.355,1.355,0,0,0-1.136-.656c-.358,0-.474.239-.434.552.042.329.3.4.52.241.345-.248.686-.13,1.051-.137M95.527,9.293a2.234,2.234,0,0,0-.357,1.581c0,.263,0,.64.374.6.313-.036.218-.381.192-.613-.055-.482-.127-.962-.208-1.565m-16.1,18.869c.409.4.5.987,1.1,1.1.167.032.189-.191.166-.313a1.082,1.082,0,0,0-.981-.924c-.026,0-.058.026-.281.137m-4.956,3.372c-.313-.429-.661-.75-1.142-.533a.432.432,0,0,0-.122.645c.456.6.826-.141,1.264-.112m18.925-9.483a3.674,3.674,0,0,0-1.67-.4c-.19-.014-.356.082-.326.292.015.11.141.284.229.292a2.289,2.289,0,0,0,1.767-.185M73.648,41.827a2.955,2.955,0,0,0,2.187-1.286l-.177-.258-2.009,1.544M72.013,30.721c-.283.449-.587.8-.22,1.226a.419.419,0,0,0,.569-.017c.338-.482-.1-.771-.348-1.209m6.537,8.955c-.458.266-.857.464-1.026.935a.473.473,0,0,0,.2.633c.35.2.392-.138.477-.342a2.441,2.441,0,0,0,.348-1.227M93.559,9.259c-.445.365-.141.855-.649,1.288,1.433-.523,1.433-.523.649-1.288m-21.5,17.665c-.01.49-.166,1,.168,1.395.088.1.375,0,.421-.184.133-.531-.187-.888-.59-1.211m14.351-9.986c.3.227.45-.206.691-.081s.514.33.7-.009c.1-.19-.059-.392-.286-.466-.3-.1-.63-.406-.894.052a3.906,3.906,0,0,0-.209.5M71.764,34.286a1.66,1.66,0,0,0-.225-1.5c-.082-.128-.29.065-.353.242-.2.55.064.891.578,1.255m2.706-3.339a1.893,1.893,0,0,0,1.956-.769,4.373,4.373,0,0,0-1.956.769m7.946-4.818c-.073.418-.044.792.248.9s.522-.234.794-.416a1.814,1.814,0,0,0-1.043-.482m7.428-7.536c-.63.085-1.392-.653-2.038.273.792.2,1.385-.34,2.038-.273M74.8,26.664c-.031-.317-.2-.536-.522-.514-.274.019-.4.237-.377.518s.147.449.458.433c.282-.014.463-.119.442-.437M102.43,8.1a3.088,3.088,0,0,0-2.2.491,3.4,3.4,0,0,0,2.2-.491M70.642,33.687c-.089-.145.028-.5-.374-.421a.593.593,0,0,0-.528.55c-.039.416.322.264.506.33.395.141.335-.2.4-.458M86.263,21.353c-.358.374-.727.631-.728,1.135a.206.206,0,0,0,.32.149,1.012,1.012,0,0,0,.408-1.284M93,34.015c-.246-.189-.4-.071-.557-.026a.566.566,0,0,0-.407.718.4.4,0,0,0,.262.268c.488.025.234-.37.3-.586.063-.195.431-.065.4-.375M76.32,31.345a1.96,1.96,0,0,0-1.331.366c-.022.02.05.227.1.236a1.077,1.077,0,0,0,1.232-.6m12.3-2.116c-.66,0-.819.4-.949.8-.064.2.149.241.263.221.522-.093.511-.565.687-1.017m5.461-17.693c-.747,1.033-.742,1.064.3,1.333-.358-.429-.223-.865-.3-1.333m1.145.895c-.127.138-.221.227-.3.329-.1.129.084.2.1.193a.976.976,0,0,0,.274-.259c.027-.042-.037-.143-.074-.263M68.207,31.09c.121-.072.122-.124.033-.162a.319.319,0,0,0-.174-.033c-.029.006-.045.08-.066.124l.208.071m19.361,3.867-.066-.07a.589.589,0,0,0-.065.124c0,.015.037.042.057.064l.073-.118" transform="translate(-49.341 0)" fill="rgba(0,0,0,0.8)"/>
    <path id="Trazado_1702" data-name="Trazado 1702" d="M43.516,166.641c-.072-.338-.584-.493-.323-1,.209-.406-.223-.308-.418-.318-.41-.022-.823-.007-1.263-.007.4-1.018,1.867-1.168,3.536-.432.1.116.157.423.295.33.214-.145.085-.415-.023-.624a1.319,1.319,0,0,0-1.4-1.14c-.517-.026-1.033-.049-1.578-.074a2.361,2.361,0,0,1,2.6-.4,2.187,2.187,0,0,1,.655,3.162c-.336.435-.526-.041-.775-.129s-.46-.435-.736-.178c-.212.2.01.467.081.68.38,1.14.823,2.275-.585,3.187-.26-1.614-.987-2.794-2.893-2.794.9-.814,1.756-.2,2.6-.076.105.156.27.25.4.1.093-.1-.055-.224-.168-.3" transform="translate(-32.135 -128.573)" fill="rgba(0,0,0,0.8)"/>
    <path id="Trazado_1703" data-name="Trazado 1703" d="M60.009,143.336c-.083.181.168.664-.2.515s-.847.48-1.059-.211a1.6,1.6,0,0,0-.676-.883c-.46.224.041.459-.06.72a3.855,3.855,0,0,1-1.385-.6c-.127-.076-.321-.388-.428.033l.039.038c.494-.242.047-.45-.064-.583a.8.8,0,0,1-.012-1.079c.437.157.522.73,1,.852.2-.455-.471-.7-.3-1.1.125-.3,0-.829.6-.78-.011.706.09,1.351.876,1.628l-.022-.028c.211.758.946.785,1.5,1.072L59.8,142.9c-.184.267.048.336.21.438" transform="translate(-44.209 -110.786)" fill="rgba(0,0,0,0.8)"/>
    <path id="Trazado_1704" data-name="Trazado 1704" d="M31.525,200.637c-.083.691.315,1.406-.506,1.747-.239-.308-.1-.669-.133-1a1.553,1.553,0,0,0-1.193-1.517c-.233-.066-.524-.1-.424-.436a.505.505,0,0,1,.658-.359,20.771,20.771,0,0,1,2.184.656c.4.158.865.468.6,1.024-.345.71-.732.041-1.182-.111" transform="translate(-23.105 -157.233)" fill="rgba(0,0,0,0.8)"/>
    <path id="Trazado_1705" data-name="Trazado 1705" d="M38.11,192.322c-.234-1.858-.509-2.17-2.112-2.573-.177-.045-.476.022-.41-.307a.587.587,0,0,1,.425-.419,2.726,2.726,0,0,1,3.036,1.845c.065.648-.492.919-.94,1.454" transform="translate(-28.105 -149.26)" fill="rgba(0,0,0,0.8)"/>
    <path id="Trazado_1706" data-name="Trazado 1706" d="M13.9,217.731c-.384-.892-.214-2.01-1.22-2.556-.131-.071-.065-.176-.005-.249a.358.358,0,0,1,.462-.125A4.2,4.2,0,0,1,15.1,216.73c.147.339-.039.434-.254.545-.3.158-.618.3-.947.456" transform="translate(-9.959 -169.646)" fill="rgba(0,0,0,0.8)"/>
    <path id="Trazado_1707" data-name="Trazado 1707" d="M21.441,209.749a4.371,4.371,0,0,1,1.853.21c.743.17.894.652.861,1.318a.775.775,0,0,1-.491.735c-.385.137-.409-.3-.513-.514a3.782,3.782,0,0,0-1.711-1.748" transform="translate(-16.937 -165.657)" fill="rgba(0,0,0,0.8)"/>
    <path id="Trazado_1708" data-name="Trazado 1708" d="M54.732,152.111c.27.547.824.676,1.311.923.734.372,1.412.811.888,1.975-.693-1.08-1.859-1.552-2.636-2.476-.131-.157-.288-.393-.127-.556.237-.242.38.173.6.173l-.039-.038" transform="translate(-42.735 -119.992)" fill="rgba(0,0,0,0.8)"/>
    <path id="Trazado_1709" data-name="Trazado 1709" d="M.362,220.978c.491-.015,2.053,1.885,1.912,2.337-.063.2-.264.19-.43.221-.254.047-.459.05-.593-.254a6.58,6.58,0,0,0-1.142-1.865c-.292-.317.074-.344.252-.438" transform="translate(0 -174.558)" fill="rgba(0,0,0,0.8)"/>
    <path id="Trazado_1710" data-name="Trazado 1710" d="M63.493,129.939h.292c.036.269-.124.645.365.667-.518,1.017-.441,1.241.512,1.491l-.018.035a3.665,3.665,0,0,0-.007,1.3c.021.6-.308.435-.628.278l.022.028a3.053,3.053,0,0,0-.836-1.936c-.159-.662.324-1.22.3-1.86" transform="translate(-49.894 -102.643)" fill="rgba(0,0,0,0.8)"/>
    <path id="Trazado_1711" data-name="Trazado 1711" d="M206.583,129.687c-.084-.153-.187-.294-.379-.29-.307.007-.629.064-.739-.341a.315.315,0,0,1,.189-.412.7.7,0,0,1,.827.179,1.45,1.45,0,0,1,.163.249q-.031.307-.061.614" transform="translate(-162.291 -101.569)" fill="rgba(0,0,0,0.8)"/>
    <path id="Trazado_1712" data-name="Trazado 1712" d="M127.666,82.642l.151-.156.216.158-.191.22-.176-.222" transform="translate(-100.848 -65.159)" fill="rgba(0,0,0,0.8)"/>
    <path id="Trazado_1713" data-name="Trazado 1713" d="M166.96,121.812c-.715.046-.8-.251-.524-.853a2.083,2.083,0,0,1,1.458-1.2.5.5,0,0,1,.64.387c.1.391-.28.274-.472.356-.5.214-1.514.024-.9,1.129l-.2.181" transform="translate(-131.359 -94.586)" fill="rgba(0,0,0,0.8)"/>
    <path id="Trazado_1714" data-name="Trazado 1714" d="M115.135,178.768a7.6,7.6,0,0,1,2.853-1.5c-.631,1.141-1.9,1.036-2.853,1.5" transform="translate(-90.949 -140.028)" fill="rgba(0,0,0,0.8)"/>
    <path id="Trazado_1715" data-name="Trazado 1715" d="M91.821,148.766c-.037.295.068.694-.385.734-.352.032-.406-.3-.522-.553-.159-.346-.351-.677-.552-1.059a1.619,1.619,0,0,1,1.431.6l.028.28" transform="translate(-71.38 -116.803)" fill="rgba(0,0,0,0.8)"/>
    <path id="Trazado_1716" data-name="Trazado 1716" d="M157.543,108.155c.338.136.31.42.408.631a.994.994,0,0,1,.066.9c-.079.156-.247.091-.351,0a.944.944,0,0,1-.383-.915,3.019,3.019,0,0,1,.26-.619" transform="translate(-124.232 -85.436)" fill="rgba(0,0,0,0.8)"/>
    <path id="Trazado_1717" data-name="Trazado 1717" d="M128.275,159.689c-.364.007-.706-.111-1.05.137-.224.161-.478.088-.52-.241-.04-.312.076-.553.434-.552a1.354,1.354,0,0,1,1.136.656" transform="translate(-100.083 -125.626)" fill="rgba(0,0,0,0.8)"/>
    <path id="Trazado_1718" data-name="Trazado 1718" d="M218.506,44.238c.081.6.153,1.083.208,1.565.026.232.121.576-.192.613-.375.043-.371-.334-.373-.6a2.233,2.233,0,0,1,.357-1.581" transform="translate(-172.32 -34.945)" fill="rgba(0,0,0,0.8)"/>
    <path id="Trazado_1719" data-name="Trazado 1719" d="M116.137,162.958c.005.1.016.2.015.307a.62.62,0,0,1-.685.7.346.346,0,0,1-.368-.4c.031-.459.336-.639.761-.649a1.363,1.363,0,0,1,.3.061Z" transform="translate(-90.92 -128.699)" fill="rgba(0,0,0,0.8)"/>
    <path id="Trazado_1720" data-name="Trazado 1720" d="M115.713,193.311l2.009-1.544.178.258a2.954,2.954,0,0,1-2.187,1.286" transform="translate(-91.406 -151.484)" fill="rgba(0,0,0,0.8)"/>
    <path id="Trazado_1721" data-name="Trazado 1721" d="M208.061,44.076c.785.765.785.765-.649,1.288.508-.433.2-.923.649-1.288" transform="translate(-163.843 -34.817)" fill="rgba(0,0,0,0.8)"/>
    <path id="Trazado_1722" data-name="Trazado 1722" d="M108,128.17c.4.323.723.68.59,1.211-.046.184-.333.289-.422.184-.334-.4-.178-.9-.168-1.395" transform="translate(-85.28 -101.246)" fill="rgba(0,0,0,0.8)"/>
    <path id="Trazado_1723" data-name="Trazado 1723" d="M104.325,157.431c-.514-.364-.774-.706-.578-1.255.063-.178.271-.37.353-.243a1.66,1.66,0,0,1,.225,1.5" transform="translate(-81.902 -123.145)" fill="rgba(0,0,0,0.8)"/>
    <path id="Trazado_1724" data-name="Trazado 1724" d="M119.626,144.43a4.372,4.372,0,0,1,1.956-.769,1.893,1.893,0,0,1-1.956.769" transform="translate(-94.497 -113.483)" fill="rgba(0,0,0,0.8)"/>
    <path id="Trazado_1725" data-name="Trazado 1725" d="M157.324,124.386a1.816,1.816,0,0,1,1.043.482c-.272.182-.488.527-.794.416s-.321-.48-.248-.9" transform="translate(-124.25 -98.257)" fill="rgba(0,0,0,0.8)"/>
    <path id="Trazado_1726" data-name="Trazado 1726" d="M185.151,87.764c-.652-.067-1.246.472-2.038.273.646-.926,1.408-.188,2.038-.273" transform="translate(-144.648 -69.171)" fill="rgba(0,0,0,0.8)"/>
    <path id="Trazado_1727" data-name="Trazado 1727" d="M204.145,161.538c.033.31-.335.18-.4.375-.07.216.184.61-.3.586a.4.4,0,0,1-.262-.268.566.566,0,0,1,.407-.718c.155-.045.312-.163.557.026" transform="translate(-160.489 -127.523)" fill="rgba(0,0,0,0.8)"/>
    <path id="Trazado_1728" data-name="Trazado 1728" d="M123.412,149.218a1.077,1.077,0,0,1-1.232.6c-.049-.009-.122-.216-.1-.236a1.961,1.961,0,0,1,1.331-.365" transform="translate(-96.432 -117.873)" fill="rgba(0,0,0,0.8)"/>
    <path id="Trazado_1729" data-name="Trazado 1729" d="M203.87,157.2c-.01.275.025.568-.428.436-.386-.113-.788-.174-1.234-.27.541-.67,1.138-.142,1.687-.141l-.025-.025" transform="translate(-159.731 -124.041)" fill="rgba(0,0,0,0.8)"/>
    <path id="Trazado_1730" data-name="Trazado 1730" d="M183.352,139.143c-.175.453-.165.924-.687,1.018-.114.02-.327-.025-.263-.221.13-.4.289-.8.949-.8" transform="translate(-144.077 -109.914)" fill="rgba(0,0,0,0.8)"/>
    <path id="Trazado_1731" data-name="Trazado 1731" d="M210.986,54.918c.074.468-.061.9.3,1.333-1.04-.269-1.044-.3-.3-1.333" transform="translate(-166.251 -43.382)" fill="rgba(0,0,0,0.8)"/>
    <path id="Trazado_1732" data-name="Trazado 1732" d="M181.914,110.8l.325-.779c.359.466.472.82-.171,1l-.155-.225" transform="translate(-143.701 -86.91)" fill="rgba(0,0,0,0.8)"/>
    <path id="Trazado_1733" data-name="Trazado 1733" d="M204.41,147.462c-.131.195-.428.231-.482.111-.1-.227.229-.171.336-.286l.145.175" transform="translate(-161.076 -116.348)" fill="rgba(0,0,0,0.8)"/>
    <path id="Trazado_1734" data-name="Trazado 1734" d="M217.181,59.176c.037.12.1.221.073.263a.972.972,0,0,1-.274.259c-.015.01-.2-.063-.1-.193.078-.1.172-.191.3-.329" transform="translate(-171.3 -46.745)" fill="rgba(0,0,0,0.8)"/>
    <path id="Trazado_1735" data-name="Trazado 1735" d="M89.034,147.26l-.208-.071c.022-.043.037-.118.066-.124a.321.321,0,0,1,.174.033c.089.038.089.091-.033.162" transform="translate(-70.167 -116.17)" fill="rgba(0,0,0,0.8)"/>
    <path id="Trazado_1736" data-name="Trazado 1736" d="M128.929,79.21a.3.3,0,0,1,.428-.08l-.237.278-.192-.2" transform="translate(-101.846 -62.463)" fill="rgba(0,0,0,0.8)"/>
    <path id="Trazado_1737" data-name="Trazado 1737" d="M181.493,166.152l-.073.118c-.02-.022-.061-.049-.057-.064a.589.589,0,0,1,.065-.124l.066.07" transform="translate(-143.265 -131.194)" fill="rgba(0,0,0,0.8)"/>
    <path id="Trazado_1738" data-name="Trazado 1738" d="M164.471,132.518l-.009-.255.2.1-.19.158" transform="translate(-129.915 -104.48)" fill="rgba(0,0,0,0.8)"/>
    <path id="Trazado_1739" data-name="Trazado 1739" d="M181.062,113.972l.179-.241.155.225-.148.151-.185-.135" transform="translate(-143.028 -89.84)" fill="rgba(0,0,0,0.8)"/>
    <path id="Trazado_1740" data-name="Trazado 1740" d="M61.749,171.468c.107.21.237.479.022.624-.138.093-.191-.213-.295-.33l.272-.295" transform="translate(-48.563 -135.449)" fill="rgba(0,0,0,0.8)"/>
    <path id="Trazado_1741" data-name="Trazado 1741" d="M53.3,181.222c.112.071.261.193.168.3-.132.146-.3.051-.4-.1l.234-.191" transform="translate(-41.916 -143.154)" fill="rgba(0,0,0,0.8)"/>
    <path id="Trazado_1742" data-name="Trazado 1742" d="M167.06,111.618c-.039-.338-.124-.706.433-.641-.022.3.109.7-.433.641" transform="translate(-131.944 -87.659)" fill="rgba(0,0,0,0.8)"/>
  </g>
</svg>
