<svg id="Grupo_527" data-name="Grupo 527" xmlns="http://www.w3.org/2000/svg" xmlns:xlink="http://www.w3.org/1999/xlink" width="49" height="49.217" viewBox="0 0 49 49.217">
  <defs>
    <clipPath id="clip-path">
      <rect id="Rectángulo_1498" data-name="Rectángulo 1498" width="49" height="49.217" fill="rgba(0,0,0,0.8)"/>
    </clipPath>
  </defs>
  <g id="Grupo_470" data-name="Grupo 470" clip-path="url(#clip-path)">
    <path id="Trazado_1654" data-name="Trazado 1654" d="M64.97,29.646c-.087-.491-.163-.921-.259-1.46l-1.272-.153a7.776,7.776,0,0,1,.989-1.065,15.266,15.266,0,0,1,1.72-1c2.389-1.239,3.248-3.5,4.163-5.916l-1.5-.259V18.615l-1.19.2c-.46-1.362-.814-2.693-1.359-3.94a22.644,22.644,0,0,0-1.7-2.9c-.1-.159-.356-.227-.549-.317-2.532-1.19-4.922-2.566-6.56-4.944A8.118,8.118,0,0,1,55.72,2.762c-.033-.405-.4-.784-.808-1.535l1.745.609L56.01.255,56.236,0A38.831,38.831,0,0,0,65.9,4.842L64.715,2.963,65,2.66a15.826,15.826,0,0,0,1.418.76c2.884,1.2,5.8,2.329,8.65,3.6a4.842,4.842,0,0,1,1.588,1.626c.216.289.173.767.26,1.156.4,1.794.554,2.247,2.491,1.882a3.55,3.55,0,0,0,2.8-1.728,3.445,3.445,0,0,1,3.66-1.293c1.09.311,2.168.664,3.422,1.051a4.422,4.422,0,0,1-.776.556c-.65.277-1.32.512-1.991.738-3.137,1.059-4.783,3.476-5.842,6.42a7.675,7.675,0,0,0-.469,1.661c-.517,4.39-3.394,6.845-7.067,8.62-1.407.68-1.718,2.061-2.31,3.27a5.979,5.979,0,0,1-.821,1.571l-.37-.874L67.2,33.567V31.715l-1.887,1.537c.678-2.078-.376-2.279-1.959-2.135l1.614-1.471" transform="translate(-40.292)" fill="rgba(0,0,0,0.8)"/>
    <path id="Trazado_1655" data-name="Trazado 1655" d="M37.9,109.272c-1.91,1.96-2.258,4.293-2.431,6.694l-.343-.044-1.452-5.488c-.93.947.184,2.756-1.854,3.012l.38-2.657c-1.427,1.32-2.613,2.9-4.2,3.743-1.537.815-3.42,1.7-5.459.558a8.876,8.876,0,0,0,4.351-4.532,5.37,5.37,0,0,1,3.532-2.993,14.311,14.311,0,0,0,1.955-.9l-.171-.584c-2.149,0-4.406.408-6.418-.118a7.952,7.952,0,0,1-5.294-3.688c2.047.662,3.62.845,5.319-.193,1.8-1.1,5.222-.3,6.9,1.314a4.451,4.451,0,0,1,.6.988l.484-.339c-.239-1.452-.566-2.9-.687-4.359a10.478,10.478,0,0,1,.209-3.1c.37-1.656.92-3.272,1.483-5.208,2.185,4.113,3.323,8.21,1.831,13.041a5.83,5.83,0,0,0,1-.81c1.776-2.529,4.969-2.591,7.561-1.355,1.352.645,2.578,1.029,3.945.164A2.773,2.773,0,0,1,50,102.2l.2.336a22.486,22.486,0,0,1-3.441,2.3,17.941,17.941,0,0,1-4.15,1.039c-1.368.237-2.765.306-4.149.449q-.014.167-.028.333c.322.2.63.424.968.589A10,10,0,0,1,44.32,112.6a7.339,7.339,0,0,0,.954,1.584,1.657,1.657,0,0,0,2.451.48c-.388,1.318-1.115,1.82-2.451,1.5-2.763-.666-5.052-2-6.226-4.78-.3-.707-.73-1.357-1.145-2.114m-.47-3.846c-1.906,1.2-1.3,2.789-1.587,4.12l.311.094,1.276-4.214m-3.493.8-.478.147c-.748,1.451,1.016,2.082,1.068,3.272l.367-.114-.957-3.3" transform="translate(-15.046 -67.042)" fill="rgba(0,0,0,0.8)"/>
    <path id="Trazado_1656" data-name="Trazado 1656" d="M13.808,51.6a15.5,15.5,0,0,0-.467-2.037,3.982,3.982,0,0,0-.992-1.82A3.381,3.381,0,0,1,10.824,43.8c.225-.986.448-1.973.724-3.192l-1.521,1.271c.058-.958.1-1.6.155-2.564-.841,1.156-1.573,2.08-2.214,3.064-1.109,1.7-2.023,2.051-3.977,1.656a3.8,3.8,0,0,0-1.8.322c-.4.134-.713.566-1.116.67C.755,45.1.36,44.889,0,44.807c.107-.316.129-.829.334-.917,2.193-.942,2.125-2.776,2.186-4.744.033-1.069.781-2.116,1.249-3.28-.453-1.756-1.012-3.786-1.491-5.835-.248-1.061.608-1.718,1.878-1.471a9.3,9.3,0,0,1,5.85,3.632c.687.917,1.262,1.917,1.892,2.884,1.16-.527,1.554-.295,1.623.851a30.691,30.691,0,0,1,5.65-.172,13.813,13.813,0,0,1,4.74,1.828c1.254.723,1.076,1.58-.207,2.238-1.806.926-3.62,1.838-5.422,2.772-.174.09-.426.311-.411.443.226,1.882-1.162,2.92-2.256,3.978a2.849,2.849,0,0,0-.839,2.475,15.066,15.066,0,0,1-.2,2.068l-.765.041M6.333,38.586a6.107,6.107,0,0,0-.556.883,12.49,12.49,0,0,0-.4,1.292,3.165,3.165,0,0,1-.394-.042c-.524-.12-1.046-.249-1.569-.375,0,.464.007.928,0,1.392-.005.327-.029.653-.047,1.041,1.937-1.315,1.937-1.315,1.982-2.045l1.681-1.027-.723-1.1,1.717-1.7c-.634,0-1.148-.145-1.476.04a2.112,2.112,0,0,0-.69,1.088c-.041.107.309.363.474.553m6.31,3.693q-.055-.976-.111-1.951l-.195.008-.555,2.794.269.073.621-.973c-.018,1.446-.018,1.446,1.746,1.067-.378-1.476.3-3.333-1.789-4.312l.851,3.108c-.308.067-.572.124-.838.187m3.948-2.948A3.852,3.852,0,0,0,13.73,37.96c1.326.92,1.265,3.3,3.648,3.31l-.292-1.148c.835,1.306,1.56.22,2.319,0-.12-2.424-2.016-.933-3.177-1.783l.363,1M7.042,31.764c-.337-.181-.672-.5-1.01-.5a1.482,1.482,0,0,0-1.016.5c-.13.155.081.866.142.867a3.862,3.862,0,0,0,1.418-.205c.218-.085.319-.473.472-.725v1.31l-1.756.158q.006.252.011.5a7.056,7.056,0,0,1,1.374.018,10.02,10.02,0,0,1,1.782.583c.08.033.067.552.037.559-.539.113-1.088.184-1.636.25-.025,0-.066-.13-.106-.215l1.254-.383-.058-.227H4.688c.674.639,1,1.215,1.442,1.317a35.42,35.42,0,0,0,3.643.5,3.433,3.433,0,0,0,.384,0l-.29-.711.878.155.275-.242c-.8-1.181-1.567-2.387-2.415-3.532-.459-.62-1.048-.573-1.563.019m6.849,5.423a5.191,5.191,0,0,0,4.131.867c.329-.053.622-.523.847-.858.042-.063-.312-.57-.493-.576-1.472-.052-2.982-.288-4.485.568M7.2,38.057l.205.711,2.767-.929-.168-.55-2.8.769m6.573,6.818-.493.022c.118.855-.929,1.833.493,2.625Z" transform="translate(0 -20.917)" fill="rgba(0,0,0,0.8)"/>
    <path id="Trazado_1657" data-name="Trazado 1657" d="M78.129,148.284l.311.094,1.276-4.214c-1.905,1.2-1.3,2.789-1.587,4.12" transform="translate(-57.328 -105.781)" fill="rgba(0,0,0,0.8)"/>
    <path id="Trazado_1658" data-name="Trazado 1658" d="M68.664,147.331c-.748,1.451,1.016,2.082,1.068,3.272l.367-.115-.957-3.3-.478.147" transform="translate(-50.247 -107.997)" fill="rgba(0,0,0,0.8)"/>
    <path id="Trazado_1659" data-name="Trazado 1659" d="M52.173,59.356c1.5-.856,3.013-.62,4.485-.568.182.006.535.514.493.576-.225.335-.518.806-.847.859a5.193,5.193,0,0,1-4.131-.867" transform="translate(-38.282 -43.085)" fill="rgba(0,0,0,0.8)"/>
    <path id="Trazado_1660" data-name="Trazado 1660" d="M54.926,66.172l.292,1.148c-2.382-.01-2.322-2.39-3.648-3.31a3.848,3.848,0,0,1,2.857,1.367l.5.8" transform="translate(-37.84 -46.968)" fill="rgba(0,0,0,0.8)"/>
    <path id="Trazado_1661" data-name="Trazado 1661" d="M47.458,71.145l.835-.18-.851-3.109c2.091.98,1.411,2.837,1.789,4.313-1.765.38-1.765.38-1.746-1.066l-.026.042" transform="translate(-34.811 -49.79)" fill="rgba(0,0,0,0.8)"/>
    <path id="Trazado_1662" data-name="Trazado 1662" d="M61.81,67.208l-.5-.8c-.077-.217-.158-.439-.359-.991,1.161.85,3.057-.641,3.177,1.783-.76.223-1.484,1.31-2.319,0" transform="translate(-44.724 -48.004)" fill="rgba(0,0,0,0.8)"/>
    <path id="Trazado_1663" data-name="Trazado 1663" d="M27.055,62.258l2.8-.769.168.55-2.767.929-.205-.711" transform="translate(-19.852 -45.118)" fill="rgba(0,0,0,0.8)"/>
    <path id="Trazado_1664" data-name="Trazado 1664" d="M49.664,89.984v2.647c-1.422-.793-.375-1.77-.493-2.625Z" transform="translate(-35.887 -66.026)" fill="rgba(0,0,0,0.8)"/>
    <path id="Trazado_1665" data-name="Trazado 1665" d="M45.147,74.807l-.621.973-.269-.073.555-2.794.195-.008c.037.65.074,1.3.113,1.948l.028-.046" transform="translate(-32.474 -53.494)" fill="rgba(0,0,0,0.8)"/>
  </g>
</svg>
